<?xml version="1.0" encoding="utf-8"?>
<!-- Generator: Adobe Illustrator 25.2.2, SVG Export Plug-In . SVG Version: 6.00 Build 0)  -->
<svg version="1.1" id="Layer_1" xmlns="http://www.w3.org/2000/svg" xmlns:xlink="http://www.w3.org/1999/xlink" x="0px" y="0px"
	 viewBox="0 0 64 64" style="enable-background:new 0 0 64 64;" xml:space="preserve">
<style type="text/css">
	.st0{fill:#5D686D;}
	.st1{fill:#FFFFFF;}
</style>
<g>
	<path id="XMLID_175_" class="st0" d="M58.76,49.55C53.04,58.25,43.19,64,32,64h0C14.33,64,0,49.67,0,32v0C0,14.33,14.33,0,32,0h0
		c17.67,0,32,14.33,32,32v0C64,38.48,62.07,44.51,58.76,49.55"/>
	<path class="st1" d="M45.02,21.02L32.97,33.18c-0.54,0.54-1.41,0.54-1.95,0L18.98,21.02H45.02z M16.91,41.03v-18.2l9.06,9.14
		L16.91,41.03z M18.85,42.98l9.05-9.05l1.18,1.19c1.61,1.63,4.24,1.63,5.85,0l1.18-1.19l9.05,9.05H18.85z M47.09,41.04l-9.06-9.06
		l9.06-9.14V41.04z M49.83,37.49V22.4c0-2.26-1.84-4.12-4.12-4.12H22.4h-2.74h-1.37c-2.27,0-4.12,1.85-4.12,4.12V41.6
		c0,2.27,1.85,4.12,4.12,4.12h27.44c2.26,0,4.12-1.84,4.12-4.12v-1.37V37.49z"/>
</g>
</svg>
