<?xml version="1.0" encoding="utf-8"?>
<!-- Generator: Adobe Illustrator 25.2.2, SVG Export Plug-In . SVG Version: 6.00 Build 0)  -->
<svg version="1.1" id="Layer_1" xmlns="http://www.w3.org/2000/svg" xmlns:xlink="http://www.w3.org/1999/xlink" x="0px" y="0px"
	 viewBox="0 0 64 64" style="enable-background:new 0 0 64 64;" xml:space="preserve">
<style type="text/css">
	.st0{fill:#5D686D;}
	.st1{fill:#FFFFFF;}
</style>
<g>
	<path id="XMLID_148_" class="st0" d="M58.76,49.55C53.04,58.25,43.19,64,32,64h0C14.33,64,0,49.67,0,32v0C0,14.33,14.33,0,32,0h0
		c17.67,0,32,14.33,32,32v0C64,38.48,62.07,44.51,58.76,49.55"/>
	<g>
		<ellipse class="st1" cx="34.24" cy="18.33" rx="5.17" ry="5.18"/>
		<path class="st1" d="M42.08,43.82c-0.43-0.6-1.23-0.79-1.89-0.46c-0.71,0.36-2.9,1.19-4.43,0.76c-0.14-0.04-0.23-0.21-0.19-0.37
			l0,0l3.98-14.92c0.12-0.45,0.02-0.93-0.26-1.3c-0.28-0.37-0.72-0.59-1.19-0.59h-8.9c-0.02,0-0.03,0-0.05,0h-6.28
			c-0.83,0-1.5,0.67-1.5,1.5s0.67,1.5,1.5,1.5h4.35l-3.81,14.29c-0.44,1.67-0.16,3.33,0.77,4.54c0.9,1.17,2.28,1.82,3.88,1.84
			c0.15,0.01,0.52,0.03,1.05,0.03c2.46,0,8.44-0.49,12.82-4.9C42.45,45.23,42.51,44.41,42.08,43.82z M28.27,47.62
			c-0.05,0-0.09-0.01-0.14-0.01c-0.69,0-1.23-0.23-1.57-0.67c-0.37-0.48-0.46-1.17-0.25-1.94l4.01-15.06h5.82l-3.47,13.03
			c0,0,0,0,0,0c-0.41,1.56,0.36,3.17,1.77,3.83C31.19,47.85,28.31,47.63,28.27,47.62z"/>
	</g>
</g>
</svg>
