<?xml version="1.0" encoding="utf-8"?>
<!-- Generator: Adobe Illustrator 25.2.2, SVG Export Plug-In . SVG Version: 6.00 Build 0)  -->
<svg version="1.1" id="Layer_1" xmlns="http://www.w3.org/2000/svg" xmlns:xlink="http://www.w3.org/1999/xlink" x="0px" y="0px"
	 viewBox="0 0 64 64" style="enable-background:new 0 0 64 64;" xml:space="preserve">
<style type="text/css">
	.st0{fill:#5D686D;}
	.st1{fill:#FFFFFF;}
</style>
<g>
	<path id="XMLID_177_" class="st0" d="M58.76,49.55C53.04,58.25,43.19,64,32,64h0C14.33,64,0,49.67,0,32v0C0,14.33,14.33,0,32,0h0
		c17.67,0,32,14.33,32,32v0C64,38.48,62.07,44.51,58.76,49.55"/>
	<path class="st1" d="M50.06,28.19L32.97,13.75c-0.56-0.47-1.38-0.47-1.94,0L13.94,28.19c-0.63,0.53-0.71,1.48-0.18,2.11
		c0.53,0.63,1.48,0.71,2.11,0.18l1.79-1.51v13.71c0,2.49,2.02,4.51,4.51,4.51h6.02c0.83,0,1.5-0.67,1.5-1.5v-5.66
		c0-0.83,0.68-1.51,1.51-1.51h1.59c0.83,0,1.51,0.68,1.51,1.51v5.66c0,0.83,0.67,1.5,1.5,1.5h6.02c2.49,0,4.51-2.02,4.51-4.51V28.97
		l1.79,1.51c0.28,0.24,0.62,0.35,0.97,0.35c0.43,0,0.85-0.18,1.15-0.53C50.77,29.67,50.69,28.72,50.06,28.19z M43.33,42.68
		c0,0.83-0.68,1.51-1.51,1.51H37.3v-4.16c0-2.49-2.02-4.51-4.51-4.51h-1.59c-2.49,0-4.51,2.02-4.51,4.51v4.16h-4.52
		c-0.83,0-1.51-0.68-1.51-1.51V26.43L32,16.86l11.33,9.58V42.68z"/>
</g>
</svg>
