<svg xmlns="http://www.w3.org/2000/svg" viewBox="0 0 64 64"><style type="text/css">  
	.st0{fill:#5D686D;}
	.st1{fill:#FFFFFF;}
</style><path class="st0" d="M58.8 49.6C53 58.3 43.2 64 32 64h0C14.3 64 0 49.7 0 32v0C0 14.3 14.3 0 32 0h0c17.7 0 32 14.3 32 32v0C64 38.5 62.1 44.5 58.8 49.6"/><path class="st1" d="M50.1 28.2L33 13.8c-0.6-0.5-1.4-0.5-1.9 0L13.9 28.2c-0.6 0.5-0.7 1.5-0.2 2.1 0.5 0.6 1.5 0.7 2.1 0.2l1.8-1.5v13.7c0 2.5 2 4.5 4.5 4.5h6c0.8 0 1.5-0.7 1.5-1.5v-5.7c0-0.8 0.7-1.5 1.5-1.5h1.6c0.8 0 1.5 0.7 1.5 1.5v5.7c0 0.8 0.7 1.5 1.5 1.5h6c2.5 0 4.5-2 4.5-4.5V29l1.8 1.5c0.3 0.2 0.6 0.4 1 0.4 0.4 0 0.9-0.2 1.2-0.5C50.8 29.7 50.7 28.7 50.1 28.2zM43.3 42.7c0 0.8-0.7 1.5-1.5 1.5H37.3v-4.2c0-2.5-2-4.5-4.5-4.5h-1.6c-2.5 0-4.5 2-4.5 4.5v4.2h-4.5c-0.8 0-1.5-0.7-1.5-1.5V26.4L32 16.9l11.3 9.6V42.7z"/></svg>