<svg xmlns="http://www.w3.org/2000/svg" viewBox="0 0 48 48"><style type="text/css">  
	.st0{fill:#FFFFFF;}
	.st1{fill:#5D686D;}
</style><circle class="st0" cx="24" cy="24" r="23.3"/><path class="st1" d="M24 0C10.8 0 0 10.8 0 24c0 13.2 10.8 24 24 24 13.2 0 24-10.8 24-24C48 10.8 37.2 0 24 0zM24 46.5c-12.2 0-22.1-9.7-22.5-21.8h29.1L17.9 37.4c-0.3 0.3-0.3 0.7 0 1 0.1 0.1 0.3 0.2 0.5 0.2 0.2 0 0.4-0.1 0.5-0.2l14-14c0.1-0.1 0.1-0.1 0.2-0.2 0.1-0.2 0.1-0.4 0-0.6 0-0.1-0.1-0.2-0.2-0.2l-14-14c-0.3-0.3-0.7-0.3-1 0 -0.3 0.3-0.3 0.7 0 1l12.7 12.7H1.5C1.9 11.2 11.8 1.5 24 1.5c12.4 0 22.5 10.1 22.5 22.5S36.4 46.5 24 46.5z"/></svg>