<?xml version="1.0" encoding="utf-8"?>
<!-- Generator: Adobe Illustrator 25.2.2, SVG Export Plug-In . SVG Version: 6.00 Build 0)  -->
<svg version="1.1" id="Layer_1" xmlns="http://www.w3.org/2000/svg" xmlns:xlink="http://www.w3.org/1999/xlink" x="0px" y="0px"
	 viewBox="0 0 64 64" style="enable-background:new 0 0 64 64;" xml:space="preserve">
<style type="text/css">
	.st0{fill:#5D686D;}
	.st1{fill:#FFFFFF;}
</style>
<g>
	<path id="XMLID_146_" class="st0" d="M58.76,49.55C53.04,58.25,43.19,64,32,64h0C14.33,64,0,49.67,0,32v0C0,14.33,14.33,0,32,0h0
		c17.67,0,32,14.33,32,32v0C64,38.48,62.07,44.51,58.76,49.55"/>
	<path class="st1" d="M36,13.5h-8c-3.03,0-5.5,2.56-5.5,5.71v21.07c0,0.05,0.01,0.1,0.01,0.15c0,0.03,0,0.06,0.01,0.1
		c0.02,0.13,0.05,0.25,0.1,0.36c0.01,0.02,0.02,0.03,0.02,0.04c0.05,0.1,0.11,0.2,0.18,0.29c0.01,0.01,0.02,0.03,0.03,0.04
		l7.04,8.14c0.02,0.03,0.05,0.05,0.07,0.08c0.66,0.66,1.52,1.02,2.44,1.02h0c0.92,0,1.78-0.36,2.44-1.02
		c0.05-0.05,0.09-0.1,0.13-0.15l6.21-8.14c0.01-0.01,0.01-0.02,0.02-0.03c0.07-0.1,0.13-0.21,0.18-0.32
		c0.01-0.02,0.01-0.04,0.02-0.06c0.03-0.1,0.06-0.2,0.07-0.3c0-0.04,0.01-0.07,0.01-0.11c0-0.03,0.01-0.06,0.01-0.09V19.21
		C41.5,16.06,39.03,13.5,36,13.5z M25.5,38.78V23.93h5v14.85H25.5z M33.5,23.93h5v14.85h-5V23.93z M28,16.5h8
		c1.38,0,2.5,1.22,2.5,2.71v1.71h-13v-1.71C25.5,17.72,26.62,16.5,28,16.5z M32.68,47.41c-0.1,0.08-0.2,0.09-0.27,0.09
		c-0.07,0-0.18-0.02-0.29-0.11l-4.84-5.6h9.69L32.68,47.41z"/>
</g>
</svg>
