<?xml version="1.0" encoding="utf-8"?>
<!-- Generator: Adobe Illustrator 25.2.2, SVG Export Plug-In . SVG Version: 6.00 Build 0)  -->
<svg version="1.1" id="Layer_1" xmlns="http://www.w3.org/2000/svg" xmlns:xlink="http://www.w3.org/1999/xlink" x="0px" y="0px"
	 viewBox="0 0 64 64" style="enable-background:new 0 0 64 64;" xml:space="preserve">
<style type="text/css">
	.st0{fill:#5D686D;}
	.st1{fill:#FFFFFF;}
</style>
<g>
	<path id="XMLID_145_" class="st0" d="M58.76,49.55C53.04,58.25,43.19,64,32,64h0C14.33,64,0,49.67,0,32v0C0,14.33,14.33,0,32,0h0
		c17.67,0,32,14.33,32,32v0C64,38.48,62.07,44.51,58.76,49.55"/>
	<g>
		<path class="st1" d="M32,49.08L32,49.08c-0.4,0-0.79-0.16-1.07-0.45c-1.44-1.46-3.37-2.85-5.43-4.32
			c-3.84-2.75-7.81-5.6-9.62-9.61c-1.97-4.37-1.85-9.33,0.29-12.64c1.18-1.82,3.52-3.99,7.96-3.99c3.02,0,5.42,2.61,7.06,4.71
			c0.4,0.51,1.16,0.52,1.57,0.01c1.67-2.1,4.07-4.72,7.1-4.72c4.45,0,6.79,2.17,7.96,3.99c2.14,3.31,2.25,8.27,0.29,12.64
			c-1.81,4.01-5.78,6.86-9.62,9.61c-2.05,1.47-3.99,2.86-5.43,4.31C32.79,48.92,32.4,49.08,32,49.08z M24.14,21.08
			c-2.49,0-4.32,0.88-5.44,2.62c-1.58,2.44-1.6,6.37-0.07,9.78c1.48,3.28,5.11,5.88,8.63,8.4c1.71,1.22,3.34,2.39,4.75,3.64
			c1.41-1.25,3.04-2.42,4.75-3.64c3.52-2.52,7.15-5.13,8.63-8.4c1.53-3.41,1.51-7.34-0.07-9.78c-1.12-1.74-2.96-2.62-5.44-2.62
			c-2.04,0-4.25,2.95-5.43,4.53c-0.6,0.81-1.48,1.24-2.43,1.24c-0.95,0-1.83-0.44-2.4-1.2C28.38,24.03,26.18,21.08,24.14,21.08z"/>
	</g>
</g>
</svg>
