<svg xmlns="http://www.w3.org/2000/svg" viewBox="0 0 64 64"><style type="text/css">  
	.st0{fill:#5D686D;}
	.st1{fill:#FFFFFF;}
</style><path class="st0" d="M58.8 49.6C53 58.3 43.2 64 32 64h0C14.3 64 0 49.7 0 32v0C0 14.3 14.3 0 32 0h0c17.7 0 32 14.3 32 32v0C64 38.5 62.1 44.5 58.8 49.6"/><path class="st1" d="M45 21L33 33.2c-0.5 0.5-1.4 0.5-1.9 0L19 21H45zM16.9 41v-18.2l9.1 9.1L16.9 41zM18.9 43l9.1-9 1.2 1.2c1.6 1.6 4.2 1.6 5.9 0l1.2-1.2 9.1 9.1H18.9zM47.1 41l-9.1-9.1 9.1-9.1V41zM49.8 37.5V22.4c0-2.3-1.8-4.1-4.1-4.1H22.4h-2.7 -1.4c-2.3 0-4.1 1.9-4.1 4.1V41.6c0 2.3 1.9 4.1 4.1 4.1h27.4c2.3 0 4.1-1.8 4.1-4.1v-1.4V37.5z"/></svg>