<svg xmlns="http://www.w3.org/2000/svg" viewBox="0 0 64 64"><style type="text/css">  
	.st0{fill:#5D686D;}
	.st1{fill:#FFFFFF;}
</style><path class="st0" d="M58.8 49.6C53 58.3 43.2 64 32 64h0C14.3 64 0 49.7 0 32v0C0 14.3 14.3 0 32 0h0c17.7 0 32 14.3 32 32v0C64 38.5 62.1 44.5 58.8 49.6"/><path class="st1" d="M36 13.5h-8c-3 0-5.5 2.6-5.5 5.7v21.1c0 0.1 0 0.1 0 0.2 0 0 0 0.1 0 0.1 0 0.1 0.1 0.3 0.1 0.4 0 0 0 0 0 0 0.1 0.1 0.1 0.2 0.2 0.3 0 0 0 0 0 0l7 8.1c0 0 0.1 0.1 0.1 0.1 0.7 0.7 1.5 1 2.4 1h0c0.9 0 1.8-0.4 2.4-1 0.1 0 0.1-0.1 0.1-0.1l6.2-8.1c0 0 0 0 0 0 0.1-0.1 0.1-0.2 0.2-0.3 0 0 0 0 0-0.1 0-0.1 0.1-0.2 0.1-0.3 0 0 0-0.1 0-0.1 0 0 0-0.1 0-0.1V19.2C41.5 16.1 39 13.5 36 13.5zM25.5 38.8V23.9h5v14.9H25.5zM33.5 23.9h5v14.9h-5V23.9zM28 16.5h8c1.4 0 2.5 1.2 2.5 2.7v1.7h-13v-1.7C25.5 17.7 26.6 16.5 28 16.5zM32.7 47.4c-0.1 0.1-0.2 0.1-0.3 0.1 -0.1 0-0.2 0-0.3-0.1l-4.8-5.6h9.7L32.7 47.4z"/></svg>