<svg xmlns="http://www.w3.org/2000/svg" viewBox="0 0 123 82"><style type="text/css">  
	.st0{fill:#5D686D;}
</style><path class="st0" d="M48.7 38.8c0-0.9-0.6-1.7-1.3-2.2 -0.7-0.5-1.7-0.6-2.4-0.8 -1-0.2-1.7 0.2-2.7 0.6 -0.8 0.3-2.2 0.5-3.3 1.2 -1 0.6-1.9 1.5-2.3 2.5 -0.3 0.8-0.4 1.9 0 3.1 0.5 1.4 1.5 1.9 2.6 2 1.2 0.1 2.5-0.3 3.4-0.5 0.9-0.2 2-0.7 3-1.2 0.9-0.5 1.6-1.2 2.2-2.2C48.2 40.2 48.7 39.5 48.7 38.8z"/><path class="st0" d="M121.6 42.9c-0.7-0.6-1.7-0.8-2.8-0.9 -0.5 0-1-0.2-1.5-0.4 -1-0.2-2.2 0.3-3.1 1 -0.8 0.7-1.4 1.8-1.3 2.8 0.1 0.9 0.2 1.8 0.6 2.5 0.4 0.8 1.2 1.3 1.9 1.8 0.7 0.5 1.5 0.7 2.4 0.8 0.8 0.1 1.7 0.2 2.6-0.1 0.4-0.2 1.1-1.2 1.7-2.3 0.6-1 1-2.1 1-2.6C122.9 44.4 122.4 43.5 121.6 42.9z"/><path class="st0" d="M33.8 18.3c-0.9-0.7-2-1-3-0.8 -0.5 0.1-1.5 1-2.4 2.3 -0.7 0.9-1.2 2-1.8 2.9 -0.9 1.6-1.7 2.8-1.4 3 -0.5-0.3-1-0.4-1.5-0.6 -0.8-0.4-1.5-1-2.4-1.3 -0.9-0.3-1.8-0.4-2.7-0.5 -0.9 0-1.8 0.3-2.6 0.6 -0.9 0.3-1.9 0.4-2.8 0.8 -0.9 0.4-1.7 0.9-2.5 1.3 -0.8 0.4-1.7 0.8-2.6 1.3 -0.8 0.5-1.5 1.2-2.3 1.7 -0.8 0.6-1.5 1.2-2.2 1.9 -0.6 0.7-1.2 1.5-1.7 2.3 -0.4 0.8-0.9 1.7-1.2 2.6 -0.3 0.9-0.5 1.9-0.7 2.8 -0.2 0.9-0.1 1.9 0 2.8 0.1 0.9 0.1 1.9 0.4 2.7 0.3 0.9 0.6 1.8 1.1 2.6 0.5 0.8 1.3 1.4 1.9 2.1 0.6 0.7 1.2 1.5 1.9 2 0.8 0.5 1.7 0.9 2.5 1.3 1 0.4 1.9 0.6 2.8 0.6 1 0.1 1.9 0.1 2.9-0.1 0.9-0.2 1.7-0.8 2.6-1.2 0.8-0.4 1.6-1 2.3-1.6 0.7-0.6 1.6-1 2.3-1.7 0.7-0.7 1.2-1.4 1.8-2.1 0.4 0.3 0.8 0.8 0.8 1.3 0.1 0.8 0.1 1.8 0.1 2.8 0 0.9 0 1.8 0.1 2.8 0 0.9 0.3 1.9 0.5 2.7 0.2 0.9 0.5 1.8 1 2.6 0.5 0.8 0.9 1.7 1.8 2.1 0.7 0.4 1.5 0.5 2.2 0.6 0.9 0 1.8-0.2 2.4-0.7 0.7-0.5 1.1-1.2 1.2-2.1 0.1-0.9 0-1.9 0-2.9 0-0.9 0.1-1.9 0-2.9 -0.1-0.9-0.3-1.9-0.3-2.8 -0.1-1-0.1-1.9-0.1-2.8 0-1-0.1-2 0-3 0.1-1 0.2-2 0.3-3 0.1-1 0.2-2 0.4-3 0.1-1 0.2-2 0.4-3 0.2-1 0.4-2 0.6-3 0.2-1 0.4-2 0.7-2.9 0.2-0.8 0.5-1.7 0.9-2.5 0.3-0.8 0.7-1.7 0.8-2.5 0.1-0.9-0.1-1.7-0.4-2.6C35.3 20 34.7 19 33.8 18.3zM21 36.3c-0.4 0.9-1 1.8-1.6 2.7 -0.7 1.1-1.3 2.1-1.7 2.6 -0.5 0.7-1.3 1.4-2.1 2 -0.8 0.6-1.6 1.3-2.4 1.7 -0.8 0.3-2.4 0.4-3.1-0.3 -0.3-0.3-0.3-0.9-0.3-1.3 0-0.2 0-0.5 0-0.7 0-0.3 0-0.5 0.1-0.8 0.1-0.3 0.2-0.6 0.3-0.9 0.2-0.6 0.3-1.2 0.6-1.7 1-2.3 3.1-4 4.9-5.8 0.8-0.8 2-1.6 3-1.9 1.7-0.5 2.7 0.5 2.8 2.1C21.4 34.9 21.2 35.6 21 36.3z"/><path class="st0" d="M108.7 39.9c-0.2-0.9-0.4-1.7-0.7-2.5 -0.3-0.9-0.4-2-1-2.8 -0.5-0.8-1.2-1.3-1.9-1.9 -0.7-0.5-1.5-1-2.3-1.3 -0.8-0.3-1.7-0.5-2.6-0.6 -0.9-0.2-1.7-0.5-2.5-0.6 -0.9-0.1-1.7 0-2.5 0.1 -0.8 0.1-1.6 0.2-2.5 0.7 -0.7 0.5-1.5 1-2.3 1.6 -0.7 0.6-1.5 1.2-2.2 1.8 -0.7 0.7-1.1 1.7-1.5 2.5 0-0.5 0-1.6 0.1-2.7 0.1-0.8 0.2-1.7 0.4-2.5 0.1-0.9 0.4-1.7 0.5-2.5 0.2-1.4-0.3-1.4 0.5-2.4 1.3-1.6 2.2-1.7 3.3-2.5 0.9-0.6 1.6-1.5 2.4-2.2 0.8-0.8 1.4-1.7 2.1-2.5 0.7-0.9 1.4-1.7 2-2.6 0.5-0.8 1.2-1.6 1.6-2.6 0.4-0.9 0.8-1.9 1.1-2.9 0.3-1 0.4-2 0.5-3 0.1-1 0-2-0.3-3 -0.3-1-0.8-1.8-1.5-2.6 -0.6-0.7-1.3-1.4-2.4-1.9 -1-0.5-2.1-0.7-3.1-0.8 -1.1-0.1-2.1-0.1-3.2 0.1 -1 0.2-2 0.7-2.9 1.2 -0.9 0.5-1.8 1.1-2.5 1.8 -0.7 0.7-1.5 1.4-2.1 2.3 -0.5 0.9-1 1.8-1.3 2.8 -0.3 1.1-0.5 2.2-0.7 3.2 -0.1 1.1 0 2.2 0 3.3 0 1.1-0.2 2.1-0.1 3.2 0 1.1 0 2.1 0 3.2 0 0.9 0 1.8 0 2.7 -0.1 0.1-0.3 0.2-0.4 0.2 -0.7 0.5-1.3 1.3-2 1.8 -0.7 0.6-1.4 1.1-2.1 1.7 -0.7 0.6-1.4 1.1-2.2 1.6 -0.8 0.5-1.5 1.1-2.2 1.6 -0.8 0.5-1.4 1.2-2.1 1.7 -0.8 0.5-1.6 0.9-2.4 1.4 -0.7 0.5-1.4 1.1-2.2 1.7 -0.7 0.5-1.4 1-2.2 1.6 -0.1-0.6-0.2-1-0.2-1.5 -0.1-0.8-0.1-1.8-0.1-2.8 0-0.9 0-1.9 0.2-2.8 0.2-1 0.5-1.8 1-2.6 0.5-0.8 1.1-1.5 2.1-1.8 0.8-0.2 1.7-0.3 2.9 0 1.2 0.3 2.1 0.6 3.2-0.1 1.1-0.7 1.9-1.3 2.1-2 0.3-0.9-0.2-1.8-1-2.6 -0.6-0.6-1.5-1.1-2.4-1.6 -0.9-0.5-1.7-1.1-2.6-1.5 -1.1-0.4-2.2-0.5-2.9-0.7 -1.4-0.2-3.2-0.2-4.4 0.5 -0.8 0.5-1.4 1.2-2.2 1.8 -0.7 0.6-1.5 1.2-2.1 1.8 -0.6 0.7-1.1 1.5-1.5 2.3 -0.4 0.8-0.9 1.6-1.1 2.5 -0.2 0.9-0.2 1.7-0.3 2.6 0 0.9-0.2 1.8-0.1 2.7 0.1 0.9 0.3 1.8 0.6 2.6 0.3 0.9 0.9 1.7 1.3 2.6 0.4 0.9 0.6 1.9 0.9 2.8 0.4 0.9 0.8 1.8 1.1 2.7 -0.1 0.1-0.4 0.5-0.4 0.5 -0.7 0.5-1.6 1-2.5 1.6 -0.8 0.6-1.6 1.1-2.4 1.8 -0.7 0.7-1.6 1.3-2.2 2 -0.7 0.8-1.3 1.6-1.8 2.4 -0.6 0.9-0.8 1.9-1.1 2.8 -0.2 1-0.4 2-0.1 2.9 0.3 0.8 0.8 1.7 1.7 2.5 0.7 0.6 1.7 0.7 2.7 1 0.9 0.2 1.8 0.5 2.8 0.5 0.9 0 1.9-0.2 2.9-0.4 1-0.2 1.9-0.5 2.8-0.9 0.9-0.4 1.9-0.7 2.6-1.2 0.9-0.6 1.5-1.3 2-2 0.6-0.8 0.9-1.6 1.2-2.6 0.2-0.9 0.6-1.8 0.6-2.8 0-0.9-0.2-1.9-0.4-2.9 -0.2-0.9-0.4-1.9-0.7-2.8 -0.1-0.3-0.1-0.5-0.2-0.8 0.1 0 0.1-0.1 0.1-0.1 0.8-0.5 1.5-1.1 2.2-1.6 0.8-0.5 1.5-1.1 2.3-1.6 0.8-0.5 1.7-0.8 2.4-1.4 0.7-0.5 1.5-1.1 2.2-1.7 0.7-0.6 1.4-1.2 2.1-1.8 0.7-0.6 1.3-1.2 2-1.9 0.7-0.6 1.5-1.3 2.1-1.9 -0.1 1.2-0.5 2.5-0.7 3.7 -0.1 0.9-0.3 1.8-0.5 2.6 -0.2 0.9-0.5 1.7-0.8 2.5 -0.3 0.8-0.5 1.7-0.8 2.6 -0.3 0.8-0.7 1.7-1 2.5 -0.3 0.9-0.7 2-1.1 3.1 -0.3 1-0.5 2.2-0.6 3.2 -0.1 1.2 0.1 2.3 0.6 3.2 0.6 1 1.6 1.6 2.8 1.8 1.2 0.2 2.4 0.1 3.3-0.5 1-0.5 1.8-1.4 1.8-2.7 0-0.8-0.1-1.7 0.1-2.4 0.2-0.8 0.7-1.4 1.1-2.2 0.4-0.8 0.9-1.7 1.4-2.5 0.5-0.8 1.1-1.6 1.7-2.4 0.6-0.7 1.4-1.4 2.1-2 0.7-0.7 1.4-1.4 2.2-1.9 0.6-0.4 1.4-0.9 2.3-1.4 0.8-0.4 1.6-0.8 2.5-1.1 1-0.3 1.9-0.3 2.6 0.1 0.6 0.4 0.9 1.1 1.1 2.2 0.2 0.9 0.3 1.7 0.4 2.4 0 0.8 0.2 1.6 0.1 2.4 0 0.8-0.2 1.6-0.2 2.4 0 1.4-0.3 2.7-0.3 4.1 0 1 0 2 0 3.1 0.1 1 0.3 2 0.4 3 0 1.1 0.1 2.2 0.1 3.2 0 1.1 0 2.2-0.1 3.2 -0.1 1.1-0.2 2.1-0.3 3.2 -0.1 1.1-0.2 2.1-0.3 3.2 -0.1 1.1-0.2 2.1-0.3 3.2 -0.1 0.9-0.8 1.8-0.6 2.6 0.2 1.2 0.4 2.2 0.8 2.9 0.5 0.9 1.3 1.5 2.4 1.9 0.8 0.4 1.8 0.7 3 0.9 1.2 0.2 1.9 0.1 2.4-0.3 0.4-0.4 0.7-1.1 0.9-2.2 0.2-1.1 0.3-2.3 0.2-3.4 -0.1-1.1-0.3-2.2-0.3-3.4 0-0.9-0.2-1.9-0.3-2.8 0-0.9 0.1-1.9 0.1-2.8 0-0.9 0-1.9 0-2.8 0-0.9-0.2-1.9-0.2-2.8 0-0.9 0.2-1.9 0.2-2.8 0-0.9-0.1-1.9-0.1-2.8 0-0.9 0-1.8 0-2.7 0-0.9 0-1.8 0-2.7 0-0.9 0.2-1.8 0.4-2.6 0.2-0.8 0.2-1.7 0.2-2.6 0-0.9 0.1-1.7 0-2.6C109 41.6 108.9 40.8 108.7 39.9zM88.6 15c0.1-1 0.5-2 0.7-3 0.2-1.2 0.3-2.3 0.8-2.9 0.9-1.3 1.7-1.1 2.3-0.4 0.7 0.8 1 1.7 0.9 2.7 -0.1 1-0.5 2-1 2.8 -0.2 0.4-0.7 1.5-1.5 2.4 -0.7 0.9-1.6 1.5-2.3 1.5C88.5 17.9 88.4 16.6 88.6 15zM59.5 51.2c-0.3 0.5-1.7 1.7-2.3 1.4 -0.8-0.3-0.3-1.3 0.5-2.1 0.6-0.6 1.4-1.2 1.9-1.5C59.5 49.7 59.8 50.6 59.5 51.2z"/></svg>