<?xml version="1.0" encoding="utf-8"?>
<!-- Generator: Adobe Illustrator 25.2.2, SVG Export Plug-In . SVG Version: 6.00 Build 0)  -->
<svg version="1.1" id="Layer_1" xmlns="http://www.w3.org/2000/svg" xmlns:xlink="http://www.w3.org/1999/xlink" x="0px" y="0px"
	 viewBox="0 0 123 82" style="enable-background:new 0 0 123 82;" xml:space="preserve">
<style type="text/css">
	.st0{fill:#5D686D;}
</style>
<g>
	<path class="st0" d="M48.69,38.79c-0.04-0.95-0.61-1.73-1.26-2.22c-0.71-0.53-1.7-0.64-2.44-0.78c-1-0.19-1.71,0.19-2.74,0.59
		c-0.83,0.32-2.17,0.5-3.28,1.15c-1,0.59-1.88,1.45-2.32,2.5c-0.35,0.82-0.39,1.85,0,3.06c0.45,1.39,1.46,1.91,2.56,2
		c1.16,0.09,2.47-0.29,3.43-0.51c0.93-0.21,1.95-0.66,2.95-1.25c0.87-0.52,1.61-1.19,2.16-2.21C48.24,40.19,48.71,39.46,48.69,38.79
		z"/>
	<path class="st0" d="M121.63,42.87c-0.72-0.64-1.72-0.85-2.8-0.91c-0.52-0.03-1.02-0.25-1.52-0.36c-1.05-0.23-2.22,0.27-3.08,1.01
		c-0.85,0.74-1.39,1.79-1.3,2.84c0.08,0.92,0.19,1.79,0.56,2.49c0.42,0.79,1.16,1.31,1.85,1.77c0.71,0.48,1.49,0.7,2.39,0.76
		c0.81,0.05,1.71,0.19,2.59-0.15c0.41-0.16,1.12-1.22,1.71-2.26c0.58-1.03,1.04-2.15,0.97-2.59
		C122.85,44.43,122.35,43.51,121.63,42.87z"/>
	<path class="st0" d="M33.78,18.31c-0.92-0.69-2.04-1.03-3.01-0.83c-0.52,0.11-1.46,1.03-2.42,2.28c-0.66,0.87-1.22,1.95-1.78,2.87
		c-0.95,1.56-1.71,2.84-1.44,2.96c-0.55-0.26-1.05-0.38-1.48-0.62c-0.79-0.43-1.53-1.03-2.38-1.3c-0.88-0.28-1.82-0.45-2.69-0.5
		c-0.92-0.05-1.78,0.33-2.63,0.6c-0.9,0.29-1.87,0.43-2.76,0.8c-0.88,0.37-1.7,0.86-2.55,1.29c-0.85,0.43-1.75,0.79-2.56,1.28
		c-0.82,0.49-1.49,1.2-2.26,1.73c-0.81,0.56-1.54,1.15-2.16,1.87c-0.62,0.73-1.21,1.49-1.66,2.33c-0.44,0.84-0.93,1.69-1.23,2.59
		c-0.3,0.91-0.49,1.87-0.67,2.78c-0.17,0.91-0.06,1.85,0.01,2.76c0.07,0.92,0.1,1.85,0.38,2.73c0.28,0.88,0.61,1.77,1.08,2.57
		c0.47,0.8,1.27,1.37,1.9,2.06c0.63,0.68,1.17,1.47,1.94,2c0.77,0.53,1.65,0.91,2.53,1.26c0.95,0.37,1.87,0.55,2.76,0.62
		c0.98,0.08,1.94,0.12,2.85-0.09c0.92-0.22,1.72-0.76,2.57-1.2c0.82-0.43,1.57-0.98,2.32-1.56c0.74-0.57,1.63-1,2.29-1.66
		c0.68-0.67,1.24-1.4,1.84-2.09c0.37,0.29,0.79,0.79,0.84,1.28c0.09,0.83,0.09,1.78,0.1,2.78c0,0.9,0.04,1.84,0.08,2.78
		c0.04,0.94,0.27,1.85,0.45,2.74c0.19,0.94,0.48,1.79,0.95,2.56c0.48,0.78,0.92,1.65,1.81,2.14c0.67,0.37,1.47,0.54,2.18,0.56
		c0.88,0.03,1.77-0.25,2.42-0.7c0.66-0.46,1.07-1.21,1.17-2.1c0.11-0.93,0.01-1.88-0.05-2.86c-0.05-0.94,0.06-1.92-0.05-2.88
		c-0.11-0.95-0.26-1.9-0.34-2.85c-0.09-0.97-0.11-1.92-0.08-2.85c0.03-1.01-0.06-2.02,0-3.02c0.06-1,0.22-2,0.32-3
		c0.09-1,0.24-1.99,0.37-2.99c0.13-1,0.19-2,0.36-2.99c0.17-0.99,0.35-1.98,0.56-2.97c0.21-0.98,0.42-1.97,0.68-2.94
		c0.22-0.83,0.53-1.69,0.85-2.55c0.31-0.85,0.71-1.69,0.84-2.55c0.13-0.88-0.1-1.73-0.43-2.6C35.28,20.03,34.69,18.99,33.78,18.31z
		 M20.95,36.27c-0.36,0.94-0.96,1.78-1.59,2.73c-0.71,1.07-1.31,2.07-1.75,2.63c-0.55,0.69-1.33,1.37-2.13,2.01
		c-0.8,0.64-1.61,1.32-2.45,1.66c-0.84,0.34-2.45,0.35-3.13-0.34c-0.3-0.31-0.3-0.92-0.3-1.32c0-0.24,0-0.48,0.02-0.72
		c0.02-0.27-0.02-0.53,0.09-0.78c0.12-0.27,0.19-0.57,0.27-0.86c0.16-0.58,0.31-1.17,0.57-1.72c1.04-2.29,3.12-4.04,4.92-5.76
		c0.79-0.76,1.96-1.58,3.03-1.88c1.69-0.46,2.72,0.45,2.81,2.12C21.35,34.88,21.21,35.6,20.95,36.27z"/>
	<path class="st0" d="M108.73,39.92c-0.16-0.88-0.43-1.71-0.68-2.51c-0.29-0.93-0.44-1.99-0.97-2.81c-0.5-0.77-1.23-1.32-1.9-1.86
		c-0.69-0.55-1.46-1-2.28-1.34c-0.81-0.33-1.7-0.46-2.58-0.62c-0.91-0.17-1.71-0.5-2.5-0.62c-0.88-0.14-1.71-0.04-2.55,0.08
		c-0.77,0.11-1.64,0.17-2.46,0.68c-0.75,0.46-1.55,1.03-2.33,1.62c-0.75,0.57-1.53,1.17-2.18,1.83c-0.69,0.7-1.07,1.68-1.51,2.45
		c0.04-0.5-0.03-1.57,0.14-2.68c0.12-0.79,0.23-1.66,0.36-2.53c0.14-0.88,0.36-1.74,0.48-2.51c0.24-1.45-0.28-1.45,0.54-2.44
		c1.34-1.6,2.18-1.69,3.33-2.51c0.89-0.63,1.64-1.46,2.44-2.23c0.79-0.76,1.39-1.68,2.08-2.53c0.69-0.86,1.42-1.67,2-2.58
		c0.52-0.81,1.17-1.65,1.62-2.6c0.43-0.91,0.77-1.9,1.06-2.87c0.3-0.99,0.39-2.02,0.46-3c0.07-1.04-0.03-2.04-0.31-2.99
		c-0.28-0.96-0.8-1.78-1.53-2.56c-0.64-0.68-1.33-1.44-2.39-1.92c-1-0.46-2.06-0.67-3.08-0.78c-1.07-0.12-2.15-0.12-3.18,0.09
		c-1.03,0.21-1.96,0.74-2.9,1.23c-0.92,0.49-1.78,1.07-2.54,1.79c-0.75,0.71-1.53,1.43-2.08,2.32c-0.53,0.87-1.02,1.82-1.31,2.83
		c-0.31,1.09-0.54,2.15-0.68,3.19c-0.14,1.09,0.04,2.18,0.01,3.26c-0.03,1.07-0.17,2.14-0.15,3.24c0.02,1.06,0,2.13-0.01,3.24
		c-0.01,0.91-0.01,1.8-0.05,2.71c-0.14,0.11-0.28,0.15-0.39,0.23c-0.73,0.53-1.29,1.26-1.98,1.84c-0.69,0.57-1.42,1.1-2.12,1.67
		c-0.7,0.57-1.43,1.1-2.16,1.62c-0.76,0.54-1.5,1.07-2.23,1.58c-0.76,0.53-1.42,1.16-2.15,1.67c-0.76,0.53-1.64,0.85-2.38,1.38
		c-0.74,0.53-1.43,1.13-2.16,1.66c-0.73,0.54-1.45,0.99-2.17,1.55c-0.1-0.56-0.19-1-0.23-1.5c-0.06-0.82-0.07-1.78-0.07-2.78
		c0.01-0.92,0.03-1.88,0.18-2.78c0.16-0.97,0.52-1.84,0.96-2.6c0.48-0.84,1.09-1.51,2.05-1.79c0.76-0.23,1.71-0.33,2.85-0.05
		c1.17,0.29,2.06,0.61,3.21-0.1c1.13-0.7,1.86-1.27,2.05-1.96c0.25-0.9-0.18-1.83-0.96-2.63c-0.61-0.63-1.51-1.13-2.41-1.65
		c-0.86-0.49-1.69-1.12-2.56-1.46c-1.11-0.44-2.2-0.55-2.88-0.67c-1.36-0.25-3.24-0.23-4.37,0.47c-0.8,0.5-1.45,1.22-2.19,1.8
		c-0.75,0.58-1.5,1.16-2.13,1.84c-0.64,0.69-1.08,1.51-1.53,2.32c-0.45,0.8-0.89,1.6-1.1,2.53c-0.2,0.86-0.23,1.74-0.27,2.61
		c-0.03,0.88-0.24,1.78-0.12,2.65c0.12,0.87,0.34,1.75,0.6,2.59c0.29,0.93,0.93,1.74,1.29,2.64c0.37,0.9,0.55,1.87,0.92,2.77
		c0.37,0.89,0.81,1.77,1.1,2.7c-0.13,0.13-0.39,0.53-0.4,0.54c-0.73,0.45-1.62,0.97-2.52,1.64c-0.76,0.57-1.61,1.14-2.39,1.83
		c-0.75,0.66-1.58,1.28-2.25,2.01c-0.69,0.76-1.3,1.59-1.82,2.39c-0.57,0.89-0.85,1.86-1.08,2.76c-0.25,0.99-0.4,1.98-0.07,2.92
		c0.3,0.83,0.83,1.72,1.72,2.46c0.7,0.59,1.71,0.74,2.7,0.98c0.89,0.22,1.82,0.54,2.83,0.51c0.94-0.02,1.9-0.22,2.86-0.43
		c0.95-0.2,1.87-0.51,2.75-0.86c0.93-0.37,1.87-0.69,2.63-1.19c0.87-0.56,1.45-1.35,1.97-2.04c0.6-0.79,0.94-1.65,1.17-2.59
		c0.23-0.91,0.58-1.84,0.55-2.84c-0.03-0.93-0.23-1.9-0.41-2.88c-0.17-0.94-0.42-1.88-0.67-2.82c-0.07-0.27-0.13-0.53-0.21-0.8
		c0.05-0.03,0.06-0.06,0.11-0.09c0.79-0.52,1.48-1.15,2.22-1.65c0.78-0.53,1.54-1.06,2.28-1.58c0.77-0.54,1.69-0.84,2.42-1.39
		c0.74-0.55,1.45-1.15,2.17-1.71c0.72-0.57,1.41-1.17,2.12-1.76c0.7-0.58,1.33-1.25,2.04-1.86c0.68-0.6,1.45-1.27,2.14-1.91
		c-0.15,1.23-0.51,2.52-0.7,3.74c-0.13,0.89-0.31,1.75-0.55,2.61c-0.24,0.86-0.55,1.69-0.85,2.54c-0.3,0.84-0.48,1.72-0.8,2.56
		c-0.31,0.84-0.71,1.65-0.99,2.49c-0.3,0.88-0.73,1.95-1.07,3.08c-0.31,1.04-0.48,2.17-0.56,3.22c-0.08,1.15,0.06,2.25,0.58,3.16
		c0.56,0.97,1.64,1.55,2.81,1.77c1.15,0.22,2.37,0.05,3.34-0.46c1-0.53,1.79-1.4,1.77-2.71c-0.01-0.85-0.1-1.67,0.12-2.44
		c0.22-0.76,0.73-1.43,1.12-2.19c0.44-0.85,0.89-1.71,1.43-2.52c0.54-0.8,1.06-1.62,1.68-2.37c0.62-0.75,1.38-1.38,2.08-2.05
		c0.71-0.67,1.4-1.36,2.18-1.94c0.6-0.45,1.44-0.9,2.3-1.37c0.8-0.44,1.63-0.84,2.45-1.06c0.98-0.26,1.88-0.3,2.59,0.14
		c0.61,0.37,0.92,1.08,1.12,2.23c0.15,0.88,0.33,1.65,0.36,2.41c0.03,0.82,0.15,1.61,0.11,2.44c-0.03,0.76-0.17,1.55-0.2,2.43
		c-0.04,1.36-0.35,2.73-0.34,4.09c0.01,1.01-0.05,2.04,0.02,3.05c0.07,1.01,0.33,2.02,0.35,3.03c0.02,1.07,0.07,2.15,0.05,3.22
		c-0.02,1.07-0.01,2.15-0.07,3.22c-0.06,1.05-0.19,2.11-0.26,3.16c-0.07,1.05-0.21,2.1-0.3,3.16c-0.09,1.05-0.16,2.11-0.27,3.16
		c-0.09,0.89-0.8,1.79-0.65,2.58c0.22,1.18,0.36,2.17,0.81,2.92c0.53,0.9,1.34,1.45,2.37,1.92c0.8,0.37,1.77,0.67,2.97,0.88
		c1.24,0.22,1.89,0.14,2.36-0.3c0.42-0.4,0.67-1.07,0.86-2.23c0.18-1.15,0.26-2.27,0.16-3.39c-0.1-1.13-0.27-2.24-0.31-3.37
		c-0.03-0.94-0.24-1.88-0.26-2.82c-0.02-0.94,0.07-1.89,0.06-2.83c0-0.94,0.04-1.88,0.04-2.83c0-0.94-0.17-1.89-0.17-2.83
		c0.01-0.94,0.18-1.88,0.19-2.82c0.01-0.94-0.1-1.88-0.1-2.83c0.01-0.88,0.03-1.77,0.02-2.66c-0.01-0.89-0.05-1.78-0.01-2.66
		c0.04-0.89,0.22-1.77,0.38-2.63c0.15-0.83,0.18-1.7,0.22-2.59c0.04-0.86,0.05-1.73-0.01-2.6
		C109.01,41.63,108.89,40.76,108.73,39.92z M88.58,14.96c0.1-0.96,0.47-1.99,0.67-2.97c0.24-1.18,0.33-2.35,0.76-2.95
		c0.93-1.29,1.73-1.06,2.28-0.43c0.71,0.82,1.03,1.7,0.92,2.7c-0.11,0.99-0.53,1.97-1.03,2.8c-0.23,0.39-0.74,1.46-1.46,2.35
		c-0.69,0.85-1.56,1.47-2.27,1.47C88.45,17.93,88.4,16.63,88.58,14.96z M59.47,51.23c-0.27,0.49-1.69,1.65-2.31,1.39
		c-0.77-0.32-0.3-1.27,0.5-2.14c0.59-0.65,1.4-1.19,1.85-1.51C59.52,49.65,59.84,50.57,59.47,51.23z"/>
</g>
</svg>
